<svg width="56" height="56" viewBox="0 0 56 56" fill="none" xmlns="http://www.w3.org/2000/svg">
<path fill-rule="evenodd" clip-rule="evenodd" d="M34.9024 7.5631C29.4295 4.62637 23.3244 6.12164 20.2063 7.61094C19.925 7.7453 19.6746 8.00005 19.5021 8.35984L16.9106 13.7633C19.0124 12.9151 21.1033 12.3768 23.1325 12.0778C27.2154 11.4761 31.0487 11.8421 34.2371 12.5992C33.2101 12.3993 32.1693 12.3117 31.215 12.4341L30.6173 12.5107L30.3379 13.0447C30.1498 13.4043 29.9461 13.7901 29.728 14.1997C28.2261 14.0642 26.635 14.0438 24.9886 14.1869C25.5949 15.4811 26.3853 16.9856 27.3085 18.6325C26.889 19.3852 26.447 20.1709 25.9854 20.9831C24.5795 18.5371 23.3987 16.3137 22.5947 14.5091C20.4574 14.9011 18.2573 15.5907 16.0597 16.6755C17.7735 19.6314 19.9657 23.3723 22.3033 27.2989C21.8599 28.0402 21.4079 28.7888 20.9489 29.5412C18.0828 24.7397 15.3873 20.1339 13.4545 16.7887L13.1494 16.2606L13.4131 15.7107L17.4179 7.3603C17.7794 6.60659 18.377 5.92307 19.2101 5.52519C22.6583 3.87823 29.6047 2.09719 35.9953 5.52636C36.777 5.94582 37.3418 6.6192 37.6818 7.35947L41.3847 15.4237C41.5456 15.7741 41.5384 16.1184 41.421 16.4102C41.4042 15.801 41.0766 15.2113 40.4815 14.8985C39.8329 14.5576 39.0076 14.1643 38.0918 13.7916L35.5812 8.32402C35.4201 7.97325 35.1786 7.7113 34.9024 7.5631ZM32.8557 32.1184C33.2957 31.3922 33.7378 30.6556 34.1809 29.9097C38.0352 35.8976 42.0966 41.8283 44.7698 45.6142C45.2453 46.2878 45.0041 47.1563 44.382 47.5508L37.0208 52.2189C36.5165 52.5387 35.7385 52.5412 35.246 51.9451C33.6631 50.029 30.8035 45.6463 27.5987 40.4875C28.0529 39.7894 28.5157 39.0719 28.9854 38.3368C32.0745 43.3333 34.8362 47.6122 36.5048 49.8091L42.3063 46.1301C39.7842 42.5357 36.2737 37.3939 32.8557 32.1184Z" fill="#00A9C3"/>
<path d="M11.1163 46.1872C18.8997 36.1817 27.8452 20.3041 31.3626 13.5804C34.0382 13.2374 37.909 14.8516 39.9445 15.9215C40.2435 16.0787 40.3521 16.4476 40.1966 16.7476C32.356 31.877 22.7076 45.9911 18.704 51.3731C18.6369 51.4632 18.5147 51.479 18.4218 51.4159L11.1654 46.4888C11.0648 46.4204 11.0416 46.2831 11.1163 46.1872Z" stroke="#00A9C3" stroke-width="2.5" stroke-linecap="round"/>
</svg>
