<svg width="56" height="56" viewBox="0 0 56 56" fill="none" xmlns="http://www.w3.org/2000/svg">
<path d="M18.9704 24.8388C18.9352 25.8043 18.6897 26.8593 18.0984 27.9301C17.9805 28.1436 18.0194 28.4125 18.1692 28.605C19.5887 30.4287 21.0577 36.3795 16.8969 39.1539C8.42968 44.7998 -1.86088 30.2687 5.54318 14.9664C11.2236 3.22632 21.0656 11.511 19.859 16.9414C19.2642 19.6184 18.5342 19.8754 18.0349 20.6294C17.9326 20.7838 17.9524 20.9837 18.0333 21.1503C18.4161 21.9389 18.8448 23.6755 18.9704 24.8388ZM18.9704 24.8388H20.2755C23.5892 24.8388 26.2755 27.5251 26.2755 30.8388V47.0519M18.9704 24.8388C19.0045 25.1545 18.9829 24.4974 18.9704 24.8388ZM18.9704 24.8388H21.301C22.9579 24.8388 24.301 23.4957 24.301 21.8388V19.4089" stroke="#00A9C3" stroke-width="2.5" stroke-linecap="round"/>
<path d="M37.5296 24.8388C37.5648 25.8043 37.8103 26.8593 38.4016 27.9301C38.5195 28.1436 38.4806 28.4125 38.3308 28.605C36.9113 30.4287 35.4423 36.3795 39.6031 39.1539C48.0703 44.7998 58.3609 30.2687 50.9568 14.9664C45.2764 3.22632 35.4344 11.511 36.641 16.9414C37.2358 19.6184 37.9658 19.8754 38.4651 20.6294C38.5674 20.7838 38.5476 20.9837 38.4667 21.1503C38.0839 21.9389 37.6552 23.6755 37.5296 24.8388ZM37.5296 24.8388H36.2245C32.9108 24.8388 30.2245 27.5251 30.2245 30.8388V47.0519M37.5296 24.8388C37.4955 25.1545 37.5171 24.4974 37.5296 24.8388ZM37.5296 24.8388H35.199C33.5421 24.8388 32.199 23.4957 32.199 21.8388V19.4089" stroke="#00A9C3" stroke-width="2.5" stroke-linecap="round"/>
</svg>
