<svg width="56" height="56" viewBox="0 0 56 56" fill="none" xmlns="http://www.w3.org/2000/svg">
<path d="M4.5 49.8153C4.50002 47.7241 4.49994 43.4467 7.82696 39.6445C6.78135 37.2998 6.85143 33.1789 17.0472 29.3786C29.5069 24.7346 23.08 17.9238 24.7691 6.32056" stroke="#00A9C3" stroke-width="2.55003" stroke-linecap="round"/>
<path d="M32.4473 5.70972C32.0354 7.89597 30.9419 16.1883 32.4473 13.4091C34.9188 8.84651 47.771 6.13304 50.9831 19.1124C55.6408 37.9332 27.7897 55.6133 12.1056 44.2068C11.06 43.1295 9.32995 43.5224 9.25391 50.2902" stroke="#00A9C3" stroke-width="2.55003" stroke-linecap="round"/>
<path d="M37.582 15.3101C39.293 13.6942 45.6617 13.5991 45.0914 19.9677" stroke="#00A9C3" stroke-width="2.55003" stroke-linecap="round"/>
<path d="M34.5664 36.3912L34.9984 38.1192" stroke="#00A9C3" stroke-width="1.5" stroke-linecap="round"/>
<path d="M36.6348 35.0359L37.5948 36.5362" stroke="#00A9C3" stroke-width="1.5" stroke-linecap="round"/>
<path d="M38.7715 33.5708L40.2088 34.6227" stroke="#00A9C3" stroke-width="1.5" stroke-linecap="round"/>
<path d="M28.5133 5.87952C27.632 12.6359 27.0448 21.3016 32.6261 28.9392M32.6261 28.9392L38.4039 30.8826C38.554 30.9331 38.5812 31.1337 38.45 31.2223L32.5273 35.2227C32.3956 35.3117 32.2191 35.2105 32.2294 35.0518L32.6261 28.9392Z" stroke="#00A9C3" stroke-width="2.55003" stroke-linecap="round"/>
</svg>
