<svg width="56" height="56" viewBox="0 0 56 56" fill="none" xmlns="http://www.w3.org/2000/svg">
<path d="M50.4206 25.9514C47.9914 25.2671 43.359 25.2303 44.2489 30.7252C44.3392 31.2829 44.7489 31.7436 45.3011 31.8629C47.7546 32.3928 51.3397 31.8488 50.4206 25.9514ZM50.4206 25.9514C59.2161 21.2028 50.5825 3.23398 37.7399 14.8355M37.7399 14.8355C37.0384 24.1706 35.9061 27.4169 27.8651 35.0167M37.7399 14.8355C30.0128 18.8933 21.5338 16.7421 18.2602 15.1593M27.8651 35.0167V45.2692M27.8651 35.0167C20.985 27.8623 19.6416 25.2606 18.2602 15.1593M18.2602 15.1593C5.41756 3.55773 -3.21612 21.5266 5.57937 26.2751M5.57937 26.2751C8.035 25.5834 12.5154 25.2296 11.4937 30.9063C11.4138 31.3503 11.0882 31.7161 10.6497 31.8223C8.19629 32.4162 4.63789 32.3163 5.57937 26.2751Z" stroke="#00A9C3" stroke-width="2.5" stroke-linecap="round"/>
</svg>
