<svg width="27" height="28" viewBox="0 0 27 28" fill="none" xmlns="http://www.w3.org/2000/svg">
<path d="M14.6055 2.07922L26.0362 6.58451C26.1445 6.62718 26.2196 6.72263 26.2301 6.83855C26.7064 12.1008 25.8169 23.5597 14.6055 26.489" stroke="#00A9C3" stroke-width="1.24541" stroke-linecap="round"/>
<path d="M14.6055 2.07922L3.17472 6.58451C3.06644 6.62718 2.9914 6.72252 2.98065 6.83842C2.49233 12.1036 2.87456 23.6888 14.6055 26.489" stroke="#00A9C3" stroke-width="1.24541" stroke-linecap="round"/>
<path d="M12.8968 10.1215L12.1055 8.48532" stroke="#00A9C3" stroke-width="1.24541" stroke-linecap="round"/>
<path d="M16.5114 9.9824L17.2109 8.56073" stroke="#00A9C3" stroke-width="1.24804" stroke-linecap="round"/>
<path d="M19.1309 12.4348L19.8983 12.2364L20.8203 11.9326" stroke="#00A9C3" stroke-width="1.24546" stroke-linecap="round"/>
<path d="M8.44922 16.4862L10.1406 15.8841" stroke="#00A9C3" stroke-width="1.24546" stroke-linecap="round"/>
<path d="M17.2429 19.8422L16.5078 18.3536" stroke="#00A9C3" stroke-width="1.24541" stroke-linecap="round"/>
<path d="M12.0982 19.8683L12.75 18.3536" stroke="#00A9C3" stroke-width="1.24804" stroke-linecap="round"/>
<ellipse cx="13.4886" cy="13.3264" rx="0.7386" ry="0.673711" fill="#00A9C3"/>
<ellipse cx="15.8363" cy="15.2104" rx="0.7386" ry="0.673711" fill="#00A9C3"/>
<path d="M20.8232 16.5654L19.1836 15.871" stroke="#00A9C3" stroke-width="1.24799" stroke-linecap="round"/>
<path d="M10.1369 12.5105L8.5 11.8978" stroke="#00A9C3" stroke-width="1.24804" stroke-linecap="round"/>
<path d="M19.4445 14.26C19.4445 16.6008 17.3455 18.5938 14.6332 18.5938C11.9209 18.5938 9.82193 16.6008 9.82193 14.26C9.82193 11.9191 11.9209 9.92608 14.6332 9.92608C17.3455 9.92608 19.4445 11.9191 19.4445 14.26Z" stroke="#00A9C3" stroke-width="1.24541"/>
</svg>
