<svg width="56" height="56" viewBox="0 0 56 56" fill="none" xmlns="http://www.w3.org/2000/svg">
<path fill-rule="evenodd" clip-rule="evenodd" d="M15.5088 11.5161V7.28094H25.1781V11.5161H15.5088ZM27.6088 6.51109V11.5161H27.8852H30.5373C31.2085 11.5161 31.7527 12.0603 31.7527 12.7315C31.7527 13.4028 31.2085 13.9469 30.5373 13.9469H29.1006V19.193V21.3588C28.2505 21.5518 27.4363 21.8393 26.6699 22.2098V20.4084H14.2933V43.7254C14.2933 47.1431 17.0639 49.9137 20.4816 49.9137C23.8993 49.9137 26.6699 47.1431 26.6699 43.7254V42.7772C27.4363 43.1476 28.2505 43.4352 29.1006 43.6282V43.7254C29.1006 48.4856 25.2417 52.3445 20.4816 52.3445C15.7214 52.3445 11.8625 48.4856 11.8625 43.7254V19.193V13.9469H9.90092C9.22969 13.9469 8.68555 13.4028 8.68555 12.7315C8.68555 12.0603 9.22969 11.5161 9.90092 11.5161H13.078V6.51109C13.078 5.5938 13.8216 4.85019 14.7389 4.85019H25.9479C26.8652 4.85019 27.6088 5.5938 27.6088 6.51109ZM26.3935 13.9469H26.6699V17.9776H14.2933V13.9469H14.2934H26.3935Z" fill="#00A9C3"/>
<path d="M48.3453 46.8577L42.5526 41.0243M45.3064 32.494C45.3064 38.8005 40.1853 43.9129 33.8681 43.9129C27.5508 43.9129 22.4297 38.8005 22.4297 32.494C22.4297 26.1875 27.5508 21.0751 33.8681 21.0751C40.1853 21.0751 45.3064 26.1875 45.3064 32.494Z" stroke="#00A9C3" stroke-width="2.5" stroke-linecap="round" stroke-linejoin="round"/>
<path d="M40.0262 33.0415C40.4208 33.5851 40.5169 34.3824 40.1863 35.3274C39.857 36.2686 39.1245 37.2688 38.0334 38.0581C36.9424 38.8475 35.7623 39.2312 34.7638 39.2506C33.7613 39.27 33.0322 38.9307 32.6376 38.3872C32.243 37.8436 32.1469 37.0463 32.4775 36.1013C32.8068 35.16 33.5393 34.1599 34.6304 33.3705C35.7214 32.5812 36.9015 32.1975 37.9 32.1781C38.9025 32.1586 39.6316 32.4979 40.0262 33.0415Z" stroke="#00A9C3" stroke-width="1.79225"/>
<path d="M27.6716 27.0866C28.0042 26.5658 28.6959 26.2008 29.7393 26.1917C30.7723 26.1827 32.0294 26.5358 33.2325 27.3015C34.4356 28.0672 35.2868 29.0558 35.7147 29.9946C36.1468 30.9427 36.1073 31.7228 35.7747 32.2435C35.4422 32.7643 34.7504 33.1293 33.7071 33.1384C32.674 33.1474 31.4169 32.7942 30.2138 32.0286C29.0108 31.2629 28.1595 30.2742 27.7316 29.3355C27.2995 28.3874 27.3391 27.6073 27.6716 27.0866Z" stroke="#00A9C3" stroke-width="1.79225"/>
<path d="M30.1367 28.6468L31.3389 29.6691" stroke="#00A9C3" stroke-width="1.79225" stroke-linecap="round"/>
<path d="M35.1738 36.6736L36.4741 35.779" stroke="#00A9C3" stroke-width="1.79225" stroke-linecap="round"/>
</svg>
