<svg width="56" height="56" viewBox="0 0 56 56" fill="none" xmlns="http://www.w3.org/2000/svg">
<circle cx="28.0002" cy="28" r="24.2912" stroke="#00A9C3" stroke-width="2.5"/>
<path d="M16.6216 15.7452C16.1246 15.266 15.3333 15.2804 14.8541 15.7774C14.3749 16.2743 14.3893 17.0656 14.8862 17.5448L16.6216 15.7452ZM17.72 16.8045L16.6216 15.7452L14.8862 17.5448L15.9847 18.6041L17.72 16.8045Z" fill="#00A9C3"/>
<path d="M20.5698 13.8403C20.3259 13.1945 19.6047 12.8686 18.9588 13.1124C18.313 13.3563 17.9871 14.0776 18.231 14.7234L20.5698 13.8403ZM21.1088 15.2679L20.5698 13.8403L18.231 14.7234L18.77 16.151L21.1088 15.2679Z" fill="#00A9C3"/>
<path d="M24.8279 13.4471C24.8154 12.7569 24.2456 12.2075 23.5554 12.2201C22.8652 12.2326 22.3158 12.8023 22.3283 13.4926L24.8279 13.4471ZM24.8557 14.9729L24.8279 13.4471L22.3283 13.4926L22.3561 15.0183L24.8557 14.9729Z" fill="#00A9C3"/>
<path d="M28.6952 16.2002C29.2124 15.7429 29.2609 14.9529 28.8036 14.4358C28.3463 13.9186 27.5563 13.8701 27.0392 14.3274L28.6952 16.2002ZM27.552 17.211L28.6952 16.2002L27.0392 14.3274L25.896 15.3382L27.552 17.211Z" fill="#00A9C3"/>
<path d="M27.7503 21.5085C28.3543 21.8428 29.1149 21.6241 29.4492 21.02C29.7834 20.416 29.5647 19.6553 28.9607 19.3211L27.7503 21.5085ZM26.4151 20.7697L27.7503 21.5085L28.9607 19.3211L27.6255 18.5822L26.4151 20.7697Z" fill="#00A9C3"/>
<path d="M24.5695 23.7286C25.0621 24.2123 25.8535 24.205 26.3372 23.7124C26.8209 23.2199 26.8137 22.4284 26.3211 21.9448L24.5695 23.7286ZM23.4807 22.6595L24.5695 23.7286L26.3211 21.9448L25.2323 20.8756L23.4807 22.6595Z" fill="#00A9C3"/>
<path d="M21.3044 26.944C21.9015 27.2904 22.6664 27.0872 23.0129 26.49C23.3593 25.8929 23.156 25.128 22.5589 24.7816L21.3044 26.944ZM19.9844 26.1783L21.3044 26.944L22.5589 24.7816L21.2389 24.0158L19.9844 26.1783Z" fill="#00A9C3"/>
<path d="M18.8067 29.7346C19.2196 30.2879 20.0028 30.4018 20.5561 29.9889C21.1094 29.5761 21.2233 28.7929 20.8105 28.2396L18.8067 29.7346ZM17.8942 28.5115L18.8067 29.7346L20.8105 28.2396L19.8979 27.0165L17.8942 28.5115Z" fill="#00A9C3"/>
<path d="M13.92 28.5936C13.5857 29.1977 13.8044 29.9583 14.4085 30.2926C15.0125 30.6268 15.7731 30.4081 16.1074 29.8041L13.92 28.5936ZM14.6588 27.2584L13.92 28.5936L16.1074 29.8041L16.8462 28.4689L14.6588 27.2584Z" fill="#00A9C3"/>
<path d="M12.489 23.8505C11.7988 23.8631 11.2494 24.4328 11.2619 25.1231C11.2745 25.8133 11.8442 26.3627 12.5344 26.3501L12.489 23.8505ZM14.0147 23.8228L12.489 23.8505L12.5344 26.3501L14.0602 26.3224L14.0147 23.8228Z" fill="#00A9C3"/>
<path d="M13.6052 19.236C13.0012 18.9017 12.2405 19.1205 11.9063 19.7245C11.572 20.3285 11.7907 21.0892 12.3948 21.4234L13.6052 19.236ZM14.9404 19.9748L13.6052 19.236L12.3948 21.4234L13.73 22.1623L14.9404 19.9748Z" fill="#00A9C3"/>
<path d="M24.8926 15.4683C28.9098 16.8493 27.1222 20.9947 25.0889 21.3527C18.8512 22.4512 21.5582 24.4912 19.635 27.0806C18.6691 28.3811 15.5359 29.754 14.183 25.5115C12.4565 20.0974 19.871 13.7422 24.8926 15.4683Z" stroke="#00A9C3" stroke-width="2.5"/>
<circle cx="36.1926" cy="20.5681" r="2.6731" stroke="#00A9C3" stroke-width="2.5"/>
<circle cx="20.9758" cy="37.3591" r="3.92113" stroke="#00A9C3" stroke-width="2.5"/>
<path d="M35.6098 30.9803L31.9966 34.7454C30.6705 36.1273 30.7061 38.3198 32.0763 39.6579C33.4746 41.0234 35.7216 40.9744 37.0589 39.5491L40.6296 35.7438C41.9302 34.3577 41.8693 32.182 40.4932 30.8709C39.1131 29.5561 36.9296 29.605 35.6098 30.9803Z" stroke="#00A9C3" stroke-width="2.5"/>
<path d="M44.5986 25.1133C45.184 24.7475 45.362 23.9763 44.9961 23.3908C44.6302 22.8054 43.859 22.6275 43.2736 22.9933L44.5986 25.1133ZM41.6842 26.492L40.5129 26.0555L41.6842 26.492ZM43.2736 22.9933C42.7518 23.3195 41.1391 24.375 40.5129 26.0555L42.8555 26.9285C43.1588 26.1146 44.0743 25.4411 44.5986 25.1133L43.2736 22.9933ZM40.5129 26.0555C40.3117 26.5953 40.2203 27.1361 40.1628 27.6038C40.1341 27.8378 40.112 28.071 40.0918 28.2779C40.0709 28.4917 40.0518 28.6807 40.0276 28.8599C39.928 29.5962 39.7776 29.8454 39.5327 30.0043L40.8931 32.1017C42.0998 31.319 42.3829 30.0984 42.505 29.1949C42.5362 28.9641 42.5593 28.7326 42.5799 28.5208C42.6013 28.3021 42.6201 28.1047 42.6442 27.9087C42.6924 27.5164 42.7545 27.1993 42.8555 26.9285L40.5129 26.0555Z" fill="#00A9C3"/>
</svg>
