<svg width="56" height="56" viewBox="0 0 56 56" fill="none" xmlns="http://www.w3.org/2000/svg">
<path d="M42.5249 4C41.5725 5.06951 38.5102 7.95413 33.0009 8.76266C23.8884 10.1 22.7515 21.2736 33.6507 21.9285C33.8836 21.9425 34.0912 22.105 34.1379 22.3336C34.5489 24.3461 34.6991 26.9672 36.9108 29.3675C39.2667 31.9243 44.7505 33.1004 47.4373 24.6549C49.8934 16.9344 51.8484 14.8288 53.0013 13.8763" stroke="#00A9C3" stroke-width="2.5" stroke-linecap="round"/>
<path d="M14.6778 51.9188C15.6189 50.8667 18.6487 48.0258 24.1285 47.1982C27.7056 46.6579 30.0358 44.628 30.8787 42.3337M4.18193 42.3337C5.32346 41.3947 7.25588 39.3229 9.65013 31.7581C10.7986 28.1295 12.4948 26.306 14.2367 25.6117M21.9134 15.3784C19.1347 15.4662 13.7093 17.6359 14.2367 25.6117M14.2367 25.6117C16.4672 24.7227 18.7726 25.6851 20.0992 27.0798C22.3145 29.4087 22.4837 31.967 22.9051 33.9309C22.9539 34.1584 23.1572 34.3183 23.3895 34.3304C29.9645 34.6717 32.1718 38.8139 30.8787 42.3337M41.7126 34.98C41.5242 38.061 39.0935 43.8452 30.8787 42.3337" stroke="#00A9C3" stroke-width="2.5" stroke-linecap="round"/>
<ellipse cx="20.5731" cy="21.3501" rx="1.35825" ry="1.35845" fill="#00A9C3"/>
<ellipse cx="26.036" cy="24.8091" rx="1.35825" ry="1.35845" fill="#00A9C3"/>
<ellipse cx="29.9481" cy="29.9727" rx="1.35825" ry="1.35845" fill="#00A9C3"/>
<ellipse cx="35.2547" cy="33.5818" rx="1.35825" ry="1.35845" fill="#00A9C3"/>
</svg>
