<svg width="56" height="56" viewBox="0 0 56 56" fill="none" xmlns="http://www.w3.org/2000/svg">
<path d="M48.6953 24.7876C51.6551 24.3733 56.6869 30.648 48.6953 33.7262" stroke="#00A9C3" stroke-width="2.5"/>
<path d="M8.30469 24.7877C5.34486 24.3734 0.313144 30.6481 8.30469 33.7264" stroke="#00A9C3" stroke-width="2.5"/>
<path d="M16.6777 28.316C16.6777 24.2907 22.8342 22.9292 23.2486 28.316" stroke="#00A9C3" stroke-width="2.5" stroke-linecap="round"/>
<path d="M33.6602 28.316C33.6602 24.2907 39.8166 22.9292 40.231 28.316" stroke="#00A9C3" stroke-width="2.5" stroke-linecap="round"/>
<path d="M21.7578 38.9355C23.7508 41.2047 29.2166 44.3816 35.1363 38.9355" stroke="#00A9C3" stroke-width="2.5" stroke-linecap="round"/>
<path d="M49.055 29.4049C49.055 40.3145 39.9009 49.2287 28.5207 49.2287C17.1405 49.2287 7.98633 40.3145 7.98633 29.4049C7.98633 18.4952 17.1405 9.58105 28.5207 9.58105C39.9009 9.58105 49.055 18.4952 49.055 29.4049Z" stroke="#00A9C3" stroke-width="2.5"/>
<path d="M24.2012 9.30819C24.2013 5.63801 30.8354 2.88913 33.7348 7.18994C37.0651 12.1302 32.159 16.2623 27.8027 15.876" stroke="#00A9C3" stroke-width="2.5" stroke-linecap="round"/>
</svg>
