<svg width="56" height="56" viewBox="0 0 56 56" fill="none" xmlns="http://www.w3.org/2000/svg">
<path d="M21.9008 28.7592L5.30229 45.3577C5.23788 45.4221 5.2947 45.5312 5.38439 45.5153L21.3899 42.6777C21.6408 42.6332 21.7783 42.3523 21.7001 42.1098C21.2266 40.6402 21.4581 38.113 21.7364 36.5153C21.8299 35.9787 22.1161 35.5 22.5184 35.1328L25.5906 32.329M21.9008 28.7592L44.6388 5.75419C45.2197 5.16655 46.1677 5.16378 46.752 5.74802L50.5011 9.49712C51.0845 10.0806 51.0827 11.0271 50.497 11.6082L28.0161 33.9141C27.8002 34.1283 27.4527 34.1305 27.2341 33.9191L25.5906 32.329M21.9008 28.7592L25.5906 32.329M5 50.6884H10.587M15.0567 50.6884H20.6437M25.2065 50.6884H30.7935M35.2632 50.6884H40.8502M45.413 50.6884H51" stroke="#00A9C3" stroke-width="2.5" stroke-linecap="round"/>
</svg>
