<svg width="27" height="28" viewBox="0 0 27 28" fill="none" xmlns="http://www.w3.org/2000/svg">
<path d="M10.8219 4.24353C11.1782 3.60695 12.1026 3.63183 12.4242 4.28665C12.8756 5.20594 13.9193 5.67153 14.905 5.39333C15.6071 5.19516 16.2431 5.86641 16.0075 6.55683C15.6767 7.52609 16.0855 8.59331 16.9791 9.09355C17.6157 9.44988 17.5908 10.3743 16.936 10.6959C16.0167 11.1473 15.5511 12.191 15.8293 13.1766C16.0275 13.8787 15.3562 14.5148 14.6658 14.2792C13.6966 13.9483 12.6293 14.3571 12.1291 15.2508C11.7728 15.8874 10.8484 15.8625 10.5268 15.2077C10.0754 14.2884 9.03166 13.8228 8.04601 14.101C7.34392 14.2992 6.70786 13.6279 6.9435 12.9375C7.27431 11.9682 6.86554 10.901 5.97186 10.4008C5.33528 10.0445 5.36016 9.12004 6.01498 8.79847C6.93427 8.34702 7.39986 7.30333 7.12166 6.31768C6.92349 5.61559 7.59474 4.97953 8.28516 5.21517C9.25442 5.54598 10.3216 5.1372 10.8219 4.24353Z" stroke="#00A9C3" stroke-width="1.21654"/>
<path d="M24.0424 24.2017C23.4184 24.9083 22.3993 25.2555 21.1735 25.1641C19.9492 25.0727 18.5737 24.5417 17.3623 23.564C16.1509 22.5864 15.3727 21.3791 15.0732 20.2406C14.7733 19.1007 14.9604 18.0821 15.5845 17.3755C16.2085 16.6689 17.2276 16.3217 18.4534 16.4132C19.6777 16.5045 21.0532 17.0355 22.2645 18.0132C23.4759 18.9909 24.2542 20.1981 24.5537 21.3366C24.8536 22.4765 24.6664 23.4952 24.0424 24.2017Z" stroke="#00A9C3" stroke-width="1.21713"/>
<path d="M20.6749 14.5222C20.3931 14.4376 20.142 14.1968 20.0009 13.7885C19.8599 13.3802 19.8476 12.8413 20.0325 12.2785C20.2175 11.7156 20.5498 11.2803 20.9098 11.0223C21.2696 10.7645 21.6197 10.7042 21.9015 10.7888C22.1832 10.8734 22.4344 11.1142 22.5754 11.5225C22.7165 11.9308 22.7287 12.4696 22.5438 13.0325C22.3589 13.5953 22.0266 14.0307 21.6666 14.2886C21.3067 14.5465 20.9566 14.6068 20.6749 14.5222Z" stroke="#00A9C3" stroke-width="1.21674"/>
<path d="M8.06446 22.5188C8.18115 22.2868 8.45105 22.0835 8.90223 22.0072C9.35098 21.9314 9.92119 21.9977 10.4889 22.2587C11.0566 22.5197 11.4669 22.9041 11.6851 23.2866C11.9044 23.6711 11.9068 23.9996 11.7901 24.2316C11.6734 24.4636 11.4035 24.6669 10.9523 24.7432C10.5035 24.819 9.93334 24.7527 9.36561 24.4917C8.79789 24.2307 8.38766 23.8463 8.16947 23.4638C7.95011 23.0793 7.94776 22.7508 8.06446 22.5188Z" stroke="#00A9C3" stroke-width="1.21691"/>
<path d="M3.97079 15.0809C4.2217 14.9424 4.57433 14.9267 4.98583 15.1042C5.397 15.2816 5.82235 15.6388 6.13241 16.1522C6.44246 16.6656 6.55341 17.1963 6.50852 17.6254C6.4636 18.0549 6.273 18.3389 6.0221 18.4774C5.77119 18.6159 5.41856 18.6317 5.00706 18.4541C4.59589 18.2768 4.17054 17.9195 3.86048 17.4061C3.55042 16.8928 3.43948 16.362 3.48437 15.9329C3.52929 15.5035 3.71988 15.2194 3.97079 15.0809Z" stroke="#00A9C3" stroke-width="1.217"/>
<path d="M12.4321 17.3524C12.6306 17.5422 12.7397 17.8589 12.6663 18.2876C12.5932 18.715 12.3409 19.2035 11.8992 19.6257C11.4575 20.0479 10.9466 20.2891 10.4994 20.3591C10.051 20.4292 9.7197 20.325 9.52115 20.1351C9.3226 19.9453 9.21358 19.6286 9.28692 19.2C9.36006 18.7725 9.61237 18.284 10.054 17.8618C10.4957 17.4396 11.0067 17.1984 11.4538 17.1285C11.9022 17.0584 12.2335 17.1626 12.4321 17.3524Z" stroke="#00A9C3" stroke-width="1.21715"/>
<path d="M10.6113 8.16892C10.9968 8.53745 10.9908 9.11458 10.6315 9.4581C10.2721 9.80163 9.66844 9.80735 9.28293 9.43882C8.89742 9.07028 8.90341 8.49316 9.26276 8.14964C9.62211 7.80611 10.2258 7.80039 10.6113 8.16892Z" stroke="#00A9C3" stroke-width="1.21715"/>
<path d="M11.88 12.3957C10.0553 12.3957 10.5502 11.3019 11.0576 11.161C11.0845 11.1535 11.1136 11.1518 11.1415 11.1515C12.9207 11.132 12.9222 9.89799 13.1803 8.66396C13.4406 7.42007 14.4815 7.66885 14.7418 8.41518C15.0385 9.26614 14.7419 12.3957 11.88 12.3957Z" stroke="#00A9C3" stroke-width="1.21654" stroke-linecap="round"/>
<path d="M16.8242 19.6098C16.911 20.3561 17.5529 21.799 19.4266 22.5951" stroke="#00A9C3" stroke-width="0.973228" stroke-linecap="round"/>
</svg>
